<?xml version="1.0" encoding="utf-8"?>
<!-- Generator: Adobe Illustrator 26.0.2, SVG Export Plug-In . SVG Version: 6.00 Build 0)  -->
<svg version="1.1" id="Layer_2" xmlns="http://www.w3.org/2000/svg" xmlns:xlink="http://www.w3.org/1999/xlink" x="0px" y="0px"
	 viewBox="0 0 733.22 866.62" style="enable-background:new 0 0 733.22 866.62;" xml:space="preserve">
<style type="text/css">
	.st0{fill:#FFFFFF;}
	.st1{fill:#F2F2F2;}
	.st2{fill:#E6E6E6;}
</style>
<path class="st0" d="M693.5,204.86L406.33,39.06c-12.29-7.09-26-10.64-39.72-10.64s-27.43,3.55-39.72,10.64L39.72,204.86
	c-12.29,7.09-22.22,17.2-29.08,29.08l355.97,205.52l355.97-205.52C715.72,222.06,705.79,211.95,693.5,204.86z"/>
<path class="st1" d="M722.58,233.93L366.61,439.45v411.04c13.71,0,27.43-3.55,39.72-10.64l287.18-165.8
	c12.29-7.09,22.22-17.2,29.08-29.08c6.86-11.88,10.64-25.53,10.64-39.72v-331.6C733.22,259.46,729.44,245.81,722.58,233.93z"/>
<path class="st2" d="M10.64,233.93C3.79,245.81,0,259.46,0,273.65v331.6c0,14.19,3.79,27.84,10.64,39.72
	c6.86,11.88,16.79,21.98,29.08,29.08l287.18,165.8c12.29,7.09,26,10.64,39.72,10.64V439.45L10.64,233.93z"/>
</svg>
