<?xml version="1.0" encoding="utf-8"?>
<!-- Generator: Adobe Illustrator 26.0.2, SVG Export Plug-In . SVG Version: 6.00 Build 0)  -->
<svg version="1.1" id="Layer_2_00000064343516668619463950000011249470571447987632_"
	 xmlns="http://www.w3.org/2000/svg" xmlns:xlink="http://www.w3.org/1999/xlink" x="0px" y="0px" viewBox="0 0 750 852.5"
	 style="enable-background:new 0 0 750 852.5;" xml:space="preserve">
<style type="text/css">
	.st0{fill:#F2F2F2;}
	.st1{fill:#FFFFFF;}
	.st2{fill:#E6E6E6;}
</style>
<path class="st0" d="M742.2,262.8v331.6c0,14.2-3.8,27.8-10.6,39.7c-6.9,11.9-16.8,22-29.1,29.1L415.3,829
	c-12.3,7.1-26,10.6-39.7,10.6v-411h0v411c-13.7,0-27.4-3.5-39.7-10.6L48.7,663.2c-12.3-7.1-22.2-17.2-29.1-29.1
	C12.8,622.2,9,608.6,9,594.4V262.8c0-14.2,3.8-27.8,10.6-39.7l0,0c6.9-11.9,16.8-22,29.1-29.1L335.9,28.2
	c12.3-7.1,26-10.6,39.7-10.6c13.7,0,27.4,3.5,39.7,10.6L702.5,194c12.3,7.1,22.2,17.2,29.1,29.1l0,0
	C738.4,234.9,742.2,248.6,742.2,262.8z"/>
<path class="st1" d="M702.5,194L415.3,28.2c-12.3-7.1-26-10.6-39.7-10.6s-27.4,3.5-39.7,10.6L48.7,194
	c-12.3,7.1-22.2,17.2-29.1,29.1l356,205.5l356-205.5C724.7,211.2,714.8,201.1,702.5,194z"/>
<path class="st0" d="M731.6,223l-356,205.5v411c13.7,0,27.4-3.5,39.7-10.6l287.2-165.8c12.3-7.1,22.2-17.2,29.1-29.1
	c6.9-11.9,10.6-25.5,10.6-39.7V262.8C742.2,248.6,738.4,234.9,731.6,223z"/>
<path class="st2" d="M19.6,223C12.8,234.9,9,248.6,9,262.8v331.6c0,14.2,3.8,27.8,10.6,39.7c6.9,11.9,16.8,22,29.1,29.1L335.9,829
	c12.3,7.1,26,10.6,39.7,10.6v-411L19.6,223z"/>
<polygon class="st1" points="-524,309.5 -524,309.5 -524,309.5 "/>
</svg>
